<svg width="280" height="277" viewBox="0 0 280 277" fill="none" xmlns="http://www.w3.org/2000/svg">
<path d="M169.001 269.366C169.965 268.775 170.82 267.969 171.549 266.939L176.349 270.503C174.44 273.727 171.135 275.778 166.462 276.647C163.544 277.194 160.861 277.104 158.403 276.387C155.944 275.671 153.918 274.426 152.325 272.644C150.731 270.861 149.695 268.694 149.209 266.151C148.732 263.634 148.912 261.251 149.731 259.003C150.551 256.755 151.91 254.875 153.792 253.352C155.674 251.83 157.934 250.827 160.564 250.334C163.031 249.877 165.372 249.976 167.587 250.638C169.802 251.301 171.693 252.501 173.26 254.23C174.827 255.967 175.871 258.171 176.367 260.848L157.934 268.085C158.718 269.258 159.753 270.055 161.041 270.476C162.329 270.897 163.823 270.951 165.525 270.629C166.885 270.378 168.038 269.957 169.001 269.366ZM157.367 258.645C156.413 260.078 156.097 261.869 156.44 264.01L168.569 259.227C167.965 257.956 167.038 257.024 165.804 256.424C164.562 255.833 163.175 255.672 161.644 255.958C159.744 256.317 158.322 257.212 157.367 258.645Z" fill="white"/>
<path d="M192.863 267.046C190.351 266.939 188.091 266.213 186.092 264.888C184.093 263.562 182.544 261.717 181.445 259.362C180.347 257.007 179.942 254.642 180.212 252.269C180.491 249.895 181.391 247.71 182.94 245.74C184.48 243.76 186.524 242.184 189.063 241.02C191.575 239.864 194.016 239.372 196.384 239.551C198.743 239.73 200.814 240.59 202.57 242.139L198.536 247.477C196.285 245.874 193.989 245.605 191.647 246.68C189.847 247.513 188.622 248.785 187.992 250.513C187.352 252.233 187.514 254.114 188.46 256.138C189.405 258.171 190.747 259.496 192.476 260.132C194.205 260.768 195.97 260.661 197.78 259.837C200.148 258.744 201.426 256.836 201.624 254.096L208.351 254.535C208.369 256.81 207.685 258.914 206.298 260.84C204.911 262.765 202.966 264.306 200.445 265.461C197.906 266.625 195.375 267.154 192.863 267.046Z" fill="white"/>
<path d="M222.083 250.746C219.652 251.247 217.301 251.104 215.041 250.316C212.781 249.528 210.818 248.122 209.161 246.124C207.504 244.118 206.496 241.942 206.145 239.587C205.794 237.231 206.1 234.911 207.063 232.628C208.027 230.344 209.576 228.329 211.71 226.582C213.853 224.827 216.131 223.707 218.553 223.215C220.975 222.722 223.316 222.874 225.577 223.662C227.837 224.451 229.8 225.857 231.457 227.854C233.113 229.86 234.122 232.036 234.473 234.392C234.824 236.747 234.527 239.067 233.573 241.333C232.627 243.599 231.078 245.614 228.944 247.369C226.81 249.116 224.523 250.244 222.083 250.746ZM227.423 237.992C227.549 236.183 226.909 234.428 225.505 232.726C224.091 231.024 222.488 230.066 220.678 229.842C218.868 229.618 217.211 230.129 215.699 231.365C214.195 232.601 213.366 234.132 213.222 235.95C213.078 237.768 213.718 239.524 215.122 241.225C216.536 242.927 218.148 243.885 219.967 244.091C221.786 244.297 223.452 243.787 224.964 242.551C226.477 241.324 227.296 239.801 227.423 237.992Z" fill="white"/>
<path d="M240.623 193.131L262.27 207.998L258.155 213.918L255.58 212.154C255.949 213.623 255.976 215.11 255.679 216.596C255.382 218.083 254.769 219.498 253.842 220.833C251.879 223.663 249.511 225.338 246.719 225.866C243.937 226.394 240.938 225.561 237.715 223.349L225.487 214.948L229.818 208.706L241.127 216.471C244.612 218.862 247.368 218.611 249.385 215.701C250.42 214.205 250.762 212.673 250.42 211.088C250.069 209.512 248.925 208.052 246.998 206.727L236.292 199.374L240.623 193.131Z" fill="white"/>
<path d="M271.923 182.07C272.157 182.966 272.202 183.969 272.058 185.079C271.914 186.19 271.617 187.292 271.185 188.375C270.014 191.295 268.375 193.247 266.259 194.224C264.152 195.2 261.658 195.119 258.776 193.982L237.336 185.491L240.164 178.443L246.116 180.798L248.52 174.789L253.968 176.947L251.564 182.957L261.514 186.898C262.54 187.31 263.441 187.363 264.206 187.077C264.971 186.79 265.548 186.163 265.935 185.196C266.367 184.112 266.457 183.028 266.187 181.945L271.923 182.07Z" fill="white"/>
<path d="M254.004 143.818L280 147.813L278.892 154.924L275.795 154.449C276.767 155.613 277.443 156.939 277.83 158.399C278.208 159.868 278.28 161.408 278.028 163.002C277.497 166.397 276.101 168.94 273.823 170.624C271.554 172.308 268.483 172.854 264.611 172.263L249.925 170.006L251.086 162.51L264.665 164.596C268.852 165.241 271.221 163.817 271.761 160.324C272.04 158.533 271.68 157.002 270.671 155.73C269.663 154.458 268.006 153.643 265.683 153.294L252.833 151.323L254.004 143.818Z" fill="white"/>
<path d="M253.22 126.9C252.446 125.413 251.978 123.676 251.825 121.67L258.839 121.114C258.839 121.956 258.857 122.529 258.875 122.816C259.046 124.983 259.794 126.631 261.108 127.76C262.423 128.888 264.305 129.363 266.736 129.166L279.118 128.19L279.721 135.749L253.5 137.818L252.923 130.599L256.381 130.33C255.048 129.524 253.995 128.387 253.22 126.9Z" fill="white"/>
<path d="M266.088 96.5475C265.395 95.6609 264.485 94.9086 263.387 94.2906L266.421 89.1587C269.852 90.6992 272.256 93.7353 273.643 98.2671C274.507 101.088 274.705 103.757 274.264 106.265C273.823 108.773 272.796 110.913 271.185 112.678C269.582 114.451 267.529 115.714 265.034 116.457C262.567 117.2 260.172 117.29 257.831 116.717C255.499 116.153 253.464 115.015 251.735 113.322C250.006 111.621 248.754 109.498 247.98 106.955C247.25 104.563 247.097 102.244 247.512 99.9777C247.926 97.7208 248.925 95.7146 250.483 93.9771C252.05 92.2396 254.139 90.9678 256.759 90.1797L266.007 107.617C267.097 106.713 267.781 105.602 268.06 104.286C268.339 102.969 268.231 101.482 267.727 99.8345C267.331 98.5358 266.79 97.4432 266.088 96.5475ZM256.642 109.229C258.182 110.018 260.001 110.134 262.108 109.561L256.003 98.088C254.796 98.8224 253.968 99.8345 253.509 101.124C253.049 102.414 253.049 103.802 253.5 105.289C254.058 107.125 255.111 108.441 256.642 109.229Z" fill="white"/>
<path d="M241.298 53.3161C240.326 52.7429 239.2 52.3757 237.949 52.2055L238.876 46.3213C242.64 46.5004 245.999 48.4439 248.952 52.1518C250.789 54.4624 251.969 56.8627 252.482 59.3615C252.995 61.8513 252.824 64.2157 251.987 66.4548C251.149 68.6849 249.709 70.6104 247.665 72.2225C245.648 73.8167 243.451 74.7751 241.064 75.0975C238.687 75.4199 236.373 75.1154 234.14 74.166C231.907 73.2167 229.962 71.7031 228.296 69.6163C226.738 67.6639 225.739 65.5502 225.288 63.3022C224.847 61.0452 225.027 58.8241 225.838 56.6298C226.648 54.4356 228.125 52.501 230.277 50.8083L245.314 63.6515C245.99 62.4155 246.215 61.1258 245.99 59.8003C245.765 58.4748 245.107 57.1314 244.036 55.788C243.189 54.7043 242.271 53.8893 241.298 53.3161ZM237.192 68.5595C238.912 68.7386 240.65 68.1744 242.397 66.8757L232.483 58.43C231.637 59.5585 231.231 60.8034 231.285 62.1648C231.339 63.5351 231.844 64.8247 232.816 66.0428C234.014 67.5474 235.473 68.3803 237.192 68.5595Z" fill="white"/>
<path d="M228.008 33.3885C229.088 35.6455 229.512 37.9651 229.277 40.3475C229.043 42.7298 228.134 44.9509 226.558 47.0198C224.982 49.0887 223.082 50.5575 220.84 51.4352C218.598 52.3129 216.239 52.5368 213.763 52.1159C211.286 51.6949 208.927 50.6381 206.694 48.9633C204.488 47.2975 202.903 45.3898 201.949 43.2314C200.994 41.0729 200.796 38.8518 201.336 36.5859L207.973 37.6158C207.612 40.3475 208.459 42.488 210.512 44.0374C212.097 45.2286 213.808 45.7033 215.627 45.4525C217.445 45.2017 219.048 44.1807 220.399 42.3984C221.759 40.6162 222.308 38.816 222.056 36.9979C221.804 35.1798 220.885 33.6751 219.3 32.484C217.22 30.9166 214.924 30.6927 212.403 31.8033L209.63 25.6952C211.647 24.6115 213.826 24.2174 216.185 24.5309C218.544 24.8443 220.831 25.8295 223.037 27.4954C225.27 29.1523 226.927 31.1226 228.008 33.3885Z" fill="white"/>
<path d="M199.86 15.3957C201.444 17.3034 202.417 19.4349 202.768 21.7904C203.119 24.1459 202.795 26.5282 201.796 28.9195C200.796 31.3108 199.319 33.2185 197.392 34.6246C195.456 36.0397 193.25 36.8547 190.774 37.0696C188.298 37.2935 185.785 36.8726 183.228 35.8068C180.671 34.741 178.609 33.2633 177.042 31.3646C175.475 29.4659 174.512 27.3343 174.161 24.9788C173.809 22.6233 174.134 20.241 175.133 17.8497C176.142 15.4584 177.609 13.5507 179.536 12.1446C181.472 10.7295 183.669 9.91453 186.128 9.69062C188.586 9.46672 191.098 9.8787 193.655 10.9445C196.204 12.0103 198.275 13.497 199.86 15.3957ZM186.029 16.6675C184.363 17.4019 183.102 18.7811 182.247 20.8142C181.391 22.8472 181.292 24.7101 181.94 26.4028C182.589 28.0956 183.822 29.3136 185.623 30.0659C187.424 30.8182 189.171 30.8272 190.855 30.1017C192.539 29.3763 193.799 27.997 194.655 25.964C195.51 23.9309 195.6 22.0591 194.934 20.3664C194.268 18.6647 193.034 17.4467 191.224 16.6944C189.432 15.942 187.694 15.9331 186.029 16.6675Z" fill="white"/>
<path d="M140.006 25.9819L143.131 0L150.316 0.859793L149.947 3.94967C151.082 2.94658 152.388 2.22113 153.846 1.79123C155.305 1.36134 156.854 1.24491 158.466 1.43299C161.896 1.84497 164.499 3.14362 166.264 5.34684C168.037 7.55005 168.686 10.5862 168.218 14.4463L166.453 29.1255L158.88 28.2209L160.51 14.6523C161.014 10.4698 159.501 8.16803 155.971 7.74709C154.161 7.53214 152.631 7.94413 151.388 8.992C150.145 10.0399 149.389 11.7147 149.11 14.0343L147.561 26.8775L140.006 25.9819Z" fill="white"/>
<path d="M115.505 3.67209C116.189 3.04516 117.063 2.53466 118.116 2.14058C119.17 1.74651 120.286 1.48678 121.448 1.3614C124.591 1.02106 127.094 1.54052 128.949 2.93768C130.804 4.33485 131.902 6.56493 132.244 9.61899L134.766 32.4393L127.184 33.2633L126.482 26.9313L120.016 27.6388L119.377 21.8352L125.842 21.1277L124.672 10.5415C124.555 9.44882 124.185 8.63381 123.564 8.09644C122.943 7.55907 122.123 7.35308 121.088 7.46055C119.917 7.58594 118.918 8.02479 118.08 8.76815L115.505 3.67209Z" fill="white"/>
<path d="M90.0491 37.5261L81.0716 12.9325L87.87 10.4785L88.9416 13.4071C89.4999 12.001 90.3373 10.774 91.4448 9.73511C92.5524 8.69619 93.8761 7.89909 95.4068 7.34381C98.6575 6.17055 101.566 6.17055 104.15 7.34381C106.726 8.51707 108.689 10.9352 110.021 14.5894L115.091 28.4893L107.923 31.0777L103.232 18.2345C101.782 14.2759 99.3958 12.8966 96.0552 14.0968C94.3353 14.7147 93.1647 15.7716 92.5254 17.2583C91.8951 18.745 91.9761 20.59 92.7775 22.7843L97.2167 34.9467L90.0491 37.5261Z" fill="white"/>
<path d="M75.2637 45.9275C74.3002 47.2978 72.9676 48.5248 71.2657 49.5995L67.5018 43.6795C68.2492 43.2854 68.7534 43.0078 68.9966 42.8555C70.8425 41.6912 71.9591 40.2672 72.3553 38.5834C72.7515 36.8997 72.2922 35.0278 70.9866 32.9768L64.3502 22.534L70.7975 18.4768L84.8626 40.5896L78.7035 44.4676L76.8485 41.5479C76.7495 43.0884 76.2272 44.5572 75.2637 45.9275Z" fill="white"/>
<path d="M42.244 48.8111C41.7758 49.841 41.5327 50.9874 41.5056 52.2502L35.5266 51.9815C35.2925 48.2468 36.8593 44.7091 40.236 41.3774C42.3431 39.2996 44.6122 37.8666 47.0524 37.0874C49.4837 36.3082 51.8699 36.2097 54.1931 36.7919C56.5162 37.374 58.5963 38.5831 60.4332 40.4281C62.2431 42.2462 63.4497 44.3151 64.035 46.6347C64.6203 48.9544 64.5663 51.2651 63.8639 53.5757C63.1616 55.8864 61.8649 57.9822 59.965 59.854C58.1821 61.6094 56.1921 62.8364 53.9859 63.5261C51.7798 64.2157 49.5377 64.2784 47.2596 63.7231C44.9814 63.1678 42.8743 61.9139 40.9474 59.9794L52.113 43.6971C50.7983 43.1687 49.4927 43.0881 48.187 43.4553C46.8814 43.8314 45.6207 44.6196 44.3871 45.8287C43.4326 46.787 42.7123 47.7811 42.244 48.8111ZM57.9299 51.1844C57.9119 49.4649 57.1646 47.808 55.6698 46.2227L48.3311 56.9522C49.5467 57.6687 50.8434 57.9284 52.203 57.7225C53.5627 57.5254 54.7964 56.8716 55.9129 55.779C57.2726 54.4355 57.9479 52.904 57.9299 51.1844Z" fill="white"/>
<path d="M15.4916 90.8604C15.4376 91.9889 15.6267 93.1442 16.0679 94.3265L10.404 96.261C8.80123 92.8666 8.96331 89.0065 10.8723 84.6717C12.0699 81.967 13.6547 79.8085 15.6267 78.1964C17.6077 76.5843 19.7778 75.617 22.155 75.3125C24.5322 75.008 26.9184 75.3752 29.3046 76.4141C31.6638 77.4441 33.5457 78.9308 34.9414 80.8743C36.3461 82.8178 37.1475 84.9852 37.3456 87.3944C37.5437 89.8036 37.1115 92.2218 36.031 94.6578C35.0225 96.9417 33.6178 98.8045 31.8258 100.255C30.0249 101.697 27.9719 102.584 25.6397 102.889C23.3166 103.202 20.8943 102.808 18.3911 101.715L22.7763 82.4864C21.3626 82.4685 20.1109 82.8715 19.0394 83.6955C17.9589 84.5195 17.0764 85.7196 16.3831 87.2869C15.8428 88.5497 15.5456 89.7319 15.4916 90.8604ZM30.9614 87.3407C30.3131 85.7465 28.9984 84.4836 27.0264 83.5522L24.154 96.2162C25.5497 96.4401 26.8463 96.2073 28.0349 95.5266C29.2235 94.8459 30.133 93.7891 30.7633 92.3651C31.5467 90.6097 31.6097 88.9348 30.9614 87.3407Z" fill="white"/>
<path d="M3.96578 111.827C5.46954 109.821 7.33348 108.37 9.56661 107.465C11.7997 106.56 14.1949 106.328 16.7702 106.749C19.3455 107.17 21.5427 108.164 23.3616 109.722C25.1805 111.28 26.4861 113.251 27.2695 115.633C28.0439 118.006 28.206 120.577 27.7558 123.326C27.3056 126.049 26.3421 128.324 24.8653 130.169C23.3886 132.014 21.5066 133.223 19.2375 133.805L17.0584 127.482C19.6607 126.524 21.1735 124.786 21.5877 122.261C21.9118 120.308 21.5336 118.589 20.4621 117.102C19.3906 115.615 17.7427 114.684 15.5186 114.325C13.2945 113.967 11.4396 114.317 9.9448 115.382C8.45005 116.448 7.54059 117.962 7.21642 119.914C6.79321 122.476 7.66665 124.598 9.82774 126.3L5.68565 131.584C3.77669 130.321 2.417 128.575 1.59759 126.354C0.778176 124.132 0.58908 121.661 1.03931 118.947C1.48953 116.206 2.46203 113.833 3.96578 111.827Z" fill="white"/>
<path d="M1.11129 145.027C2.05677 142.743 3.49749 140.89 5.42446 139.474C7.35144 138.059 9.62058 137.226 12.2139 136.985C14.8072 136.743 17.1844 137.137 19.3455 138.176C21.5066 139.215 23.2625 140.764 24.6222 142.842C25.9818 144.911 26.7832 147.32 27.0444 150.07C27.3055 152.81 26.9543 155.318 26.0089 157.593C25.0634 159.859 23.6226 161.704 21.6867 163.119C19.7597 164.534 17.4906 165.367 14.8972 165.609C12.3039 165.85 9.92674 165.447 7.76565 164.417C5.60456 163.379 3.84867 161.838 2.49799 159.778C1.14731 157.718 0.336898 155.318 0.0847704 152.577C-0.176361 149.828 0.165811 147.311 1.11129 145.027ZM8.72913 156.581C10.1609 157.7 11.9798 158.157 14.1859 157.951C16.392 157.745 18.0939 156.966 19.2915 155.596C20.4891 154.234 21.0023 152.577 20.8132 150.643C20.6331 148.708 19.8227 147.168 18.391 146.03C16.9593 144.893 15.1404 144.427 12.9343 144.633C10.7281 144.839 9.02628 145.627 7.82868 147.016C6.63107 148.395 6.12682 150.052 6.30691 151.995C6.487 153.93 7.29741 155.452 8.72913 156.581Z" fill="white"/>
<path d="M38.5973 192.674L14.0509 202.087L11.4486 195.37L14.3661 194.251C12.9343 193.722 11.6917 192.916 10.6202 191.823C9.55764 190.74 8.72922 189.441 8.14393 187.927C6.9013 184.721 6.84727 181.828 7.97284 179.24C9.09841 176.652 11.4936 174.663 15.1405 173.257L29.0075 167.937L31.7538 175.013L18.9314 179.93C14.9784 181.443 13.6367 183.852 14.9153 187.148C15.5727 188.841 16.6532 189.987 18.166 190.596C19.6697 191.196 21.5247 191.08 23.7128 190.238L35.8509 185.59L38.5973 192.674Z" fill="white"/>
<path d="M30.1689 224.639C29.2865 224.325 28.431 223.806 27.5846 223.054C26.7472 222.31 25.9908 221.45 25.3335 220.483C23.5596 217.877 22.8662 215.432 23.2354 213.148C23.6136 210.864 25.0814 208.858 27.6477 207.129L46.7643 194.277L51.0325 200.565L45.7288 204.129L49.3666 209.485L44.5042 212.754L40.8663 207.398L31.9968 213.363C31.0784 213.981 30.5291 214.688 30.331 215.477C30.1419 216.265 30.34 217.098 30.9253 217.957C31.5826 218.925 32.4381 219.605 33.4916 219.991L30.1689 224.639Z" fill="white"/>
<path d="M72.0851 231.347L54.193 250.522L48.8894 245.623L51.0144 243.339C49.5017 243.492 48.0159 243.304 46.5842 242.802C45.1435 242.292 43.8288 241.486 42.6402 240.384C40.1099 238.046 38.7773 235.467 38.6512 232.655C38.5251 229.834 39.7858 227.003 42.4511 224.155L52.5632 213.318L58.155 218.477L48.7993 228.49C45.9179 231.58 45.7738 234.33 48.3851 236.73C49.7268 237.966 51.2035 238.521 52.8243 238.405C54.4452 238.288 56.057 237.375 57.6508 235.664L66.5022 226.188L72.0851 231.347Z" fill="white"/>
<path d="M86.5914 240.222C88.2572 240.419 89.9681 241.02 91.724 242.014L88.2392 248.104C87.5369 247.629 87.0596 247.325 86.7985 247.172C84.8985 246.098 83.1156 245.784 81.4318 246.223C79.7479 246.662 78.3072 247.952 77.0916 250.056L70.9415 260.786L64.3142 257.024L77.3437 234.293L83.6739 237.885L81.9541 240.885C83.3768 240.249 84.9256 240.025 86.5914 240.222Z" fill="white"/>
<path d="M104.582 267.915C105.717 267.843 106.852 267.53 107.986 266.966L110.534 272.348C107.32 274.301 103.448 274.569 98.9006 273.145C96.0732 272.259 93.741 270.933 91.9131 269.151C90.0851 267.369 88.8875 265.327 88.3203 263.007C87.753 260.687 87.861 258.296 88.6444 255.815C89.4188 253.37 90.6975 251.346 92.4804 249.752C94.2633 248.149 96.3523 247.119 98.7385 246.662C101.125 246.205 103.592 246.366 106.14 247.164C108.535 247.907 110.552 249.098 112.191 250.71C113.83 252.322 114.938 254.266 115.505 256.532C116.072 258.798 115.946 261.234 115.127 263.831L95.4338 261.601C95.5689 263.007 96.1092 264.189 97.0547 265.165C97.9911 266.142 99.2878 266.885 100.936 267.395C102.232 267.816 103.457 267.987 104.582 267.915ZM99.3778 253.012C97.8561 253.827 96.7395 255.26 96.0191 257.311L108.986 258.762C109.058 257.356 108.68 256.102 107.869 255C107.059 253.899 105.906 253.11 104.411 252.645C102.574 252.071 100.9 252.188 99.3778 253.012Z" fill="white"/>
</svg>
